<svg width="21" height="21" viewBox="0 0 21 21" fill="none" xmlns="http://www.w3.org/2000/svg">
<path id="Vector 9" d="M0.93934 17.9393C0.353553 18.5251 0.353553 19.4749 0.93934 20.0607C1.52513 20.6464 2.47487 20.6464 3.06066 20.0607L0.93934 17.9393ZM20.5 2C20.5 1.17157 19.8284 0.5 19 0.5H5.5C4.67157 0.5 4 1.17157 4 2C4 2.82843 4.67157 3.5 5.5 3.5H17.5V15.5C17.5 16.3284 18.1716 17 19 17C19.8284 17 20.5 16.3284 20.5 15.5V2ZM3.06066 20.0607L20.0607 3.06066L17.9393 0.93934L0.93934 17.9393L3.06066 20.0607Z" fill="#D9F11C"/>
</svg>
