<svg width="42" height="43" viewBox="0 0 42 43" fill="none" xmlns="http://www.w3.org/2000/svg">
<g id="audition" clip-path="url(#clip0_265_27)">
<path id="Vector" d="M34.5625 0.199951H7.4375C3.32988 0.199951 0 3.61522 0 7.82816V34.5717C0 38.7847 3.32988 42.2 7.4375 42.2H34.5625C38.6701 42.2 42 38.7847 42 34.5717V7.82816C42 3.61522 38.6701 0.199951 34.5625 0.199951Z" fill="#00005B"/>
<path id="Vector_2" d="M16.5066 25.3282H9.99811L8.67391 29.5553C8.65588 29.6322 8.61224 29.7003 8.55052 29.7478C8.48879 29.7953 8.41285 29.8192 8.33578 29.8154H5.03932C4.85133 29.8154 4.78559 29.7094 4.8421 29.4975L10.4771 12.9214C10.5335 12.748 10.5898 12.5505 10.6462 12.329C10.7322 11.9535 10.7783 11.5697 10.7837 11.1841C10.7798 11.1566 10.7823 11.1286 10.7909 11.1023C10.7994 11.0759 10.8139 11.052 10.833 11.0324C10.8521 11.0128 10.8754 10.998 10.9011 10.9892C10.9268 10.9804 10.9541 10.9779 10.9809 10.9818H15.4607C15.5919 10.9818 15.667 11.0299 15.6861 11.1263L22.057 29.5264C22.1134 29.7192 22.057 29.8155 21.888 29.8154H18.2252C18.1623 29.8225 18.099 29.8059 18.0472 29.7687C17.9953 29.7315 17.9585 29.6762 17.9435 29.6131L16.5066 25.3282ZM11.0125 21.764H15.4641C15.3514 21.3789 15.2199 20.9454 15.0696 20.4636C14.9191 19.9823 14.7594 19.4669 14.5907 18.9176C14.4217 18.3685 14.2526 17.8195 14.0835 17.2704C13.9145 16.7214 13.7595 16.1916 13.6186 15.6811C13.4778 15.1709 13.351 14.7037 13.2383 14.2796H13.2101C13.0515 15.06 12.8541 15.8316 12.6184 16.5913C12.3551 17.4583 12.0875 18.3445 11.8154 19.2499C11.5429 20.1557 11.2753 20.9937 11.0125 21.764H11.0125Z" fill="#9999FF"/>
<path id="Vector_3" d="M35.4965 15.6736V26.6765C35.4965 27.1583 35.5012 27.5869 35.5106 27.9624C35.5198 28.3381 35.5386 28.6656 35.5669 28.945C35.5951 29.2245 35.6184 29.3918 35.6374 29.5841C35.6559 29.7385 35.5903 29.8153 35.4402 29.8153H32.4255C32.3555 29.8229 32.2849 29.8074 32.2241 29.771C32.1633 29.7346 32.1154 29.6793 32.0873 29.613C32.0468 29.4656 32.0139 29.3161 31.9887 29.1651C31.9623 29.0405 31.9481 28.9135 31.9464 28.786C31.3794 29.305 30.7051 29.6853 29.9742 29.8986C29.3404 30.0756 28.687 30.1679 28.0301 30.1731C27.3842 30.1811 26.7414 30.0785 26.1284 29.8697C25.5605 29.6708 25.048 29.3337 24.6351 28.8872C24.1867 28.3901 23.8501 27.7983 23.649 27.1533C23.3961 26.3263 23.2771 25.4624 23.2968 24.5959V15.7025C23.2924 15.6711 23.2952 15.6391 23.305 15.609C23.3147 15.5789 23.3312 15.5515 23.3531 15.5291C23.375 15.5066 23.4016 15.4897 23.431 15.4797C23.4603 15.4697 23.4916 15.4668 23.5222 15.4713H26.8705C26.9011 15.4668 26.9323 15.4697 26.9616 15.4798C26.991 15.4898 27.0176 15.5067 27.0395 15.5292C27.0614 15.5516 27.0778 15.5789 27.0876 15.609C27.0974 15.6391 27.1002 15.6711 27.0959 15.7025V24.1335C27.0959 24.9237 27.2649 25.545 27.603 25.9974C27.9412 26.4503 28.6219 26.6765 29.4108 26.6765C29.815 26.6816 30.2165 26.6081 30.5941 26.4598C30.9894 26.3168 31.3631 26.1174 31.7042 25.8674V15.6736C31.7042 15.5391 31.7887 15.4713 31.9579 15.4713H35.2993C35.3261 15.4674 35.3534 15.47 35.379 15.4788C35.4047 15.4876 35.428 15.5024 35.4471 15.522C35.4662 15.5416 35.4806 15.5655 35.4892 15.5919C35.4978 15.6182 35.5003 15.6462 35.4965 15.6736Z" fill="#9999FF"/>
</g>
<defs>
<clipPath id="clip0_265_27">
<rect width="42" height="42" fill="white" transform="translate(0 0.199951)"/>
</clipPath>
</defs>
</svg>
