<svg width="354" height="403" viewBox="0 0 354 403" fill="none" xmlns="http://www.w3.org/2000/svg">
<path fill-rule="evenodd" clip-rule="evenodd" d="M32.2142 362.261L0 0.953979H353.982L321.734 362.202L176.777 402.392L32.2142 362.261Z" fill="#0071BC"/>
<path fill-rule="evenodd" clip-rule="evenodd" d="M177.288 371.653L294.275 339.47L321.685 31.0433H177.288V371.653Z" fill="#29ABE2"/>
<path fill-rule="evenodd" clip-rule="evenodd" d="M73.738 163.786L77.6186 208.034L177.288 163.786V119.466L73.738 163.786Z" fill="#B3B3B3"/>
<path fill-rule="evenodd" clip-rule="evenodd" d="M287.676 72.1575L177.288 119.466V163.786L283.87 116.405L287.676 72.1575Z" fill="#E6E6E6"/>
<path fill-rule="evenodd" clip-rule="evenodd" d="M177.288 279.559L176.946 279.611L127.517 266.336L124.288 231.042H79.8018L86.0097 300.573L176.936 325.75L177.288 325.666V279.559Z" fill="#E6E6E6"/>
<path fill-rule="evenodd" clip-rule="evenodd" d="M177.288 163.786V208.034H231.405L226.487 265.884L177.288 279.597V325.701L267.913 300.525L279.847 163.786H177.288Z" fill="white"/>
<path fill-rule="evenodd" clip-rule="evenodd" d="M177.288 163.786H73.738L77.6186 208.034H177.288V163.786Z" fill="#E6E6E6"/>
<path fill-rule="evenodd" clip-rule="evenodd" d="M177.289 116.405V72.1575H176.839H65.8708L69.7974 116.405H177.289Z" fill="#E6E6E6"/>
<path fill-rule="evenodd" clip-rule="evenodd" d="M177.288 72.1575V115.85V116.405H283.87L287.676 72.1575H177.288Z" fill="white"/>
</svg>
