<svg width="48" height="48" viewBox="0 0 48 48" fill="none" xmlns="http://www.w3.org/2000/svg">
<g id="Figma">
<path id="Vector" d="M16.0625 48C20.4785 48 24.0625 44.416 24.0625 40V32H16.0625C11.6465 32 8.0625 35.584 8.0625 40C8.0625 44.416 11.6465 48 16.0625 48Z" fill="#0ACF83"/>
<path id="Vector_2" d="M8.0625 24C8.0625 19.584 11.6465 16 16.0625 16H24.0625V32H16.0625C11.6465 32 8.0625 28.416 8.0625 24Z" fill="#A259FF"/>
<path id="Vector_3" d="M8.0625 8C8.0625 3.584 11.6465 0 16.0625 0H24.0625V16H16.0625C11.6465 16 8.0625 12.416 8.0625 8Z" fill="#F24E1E"/>
<path id="Vector_4" d="M24.0625 0H32.0625C36.4785 0 40.0625 3.584 40.0625 8C40.0625 12.416 36.4785 16 32.0625 16H24.0625V0Z" fill="#FF7262"/>
<path id="Vector_5" d="M40.0625 24C40.0625 28.416 36.4785 32 32.0625 32C27.6465 32 24.0625 28.416 24.0625 24C24.0625 19.584 27.6465 16 32.0625 16C36.4785 16 40.0625 19.584 40.0625 24Z" fill="#1ABCFE"/>
</g>
</svg>
