<svg width="355" height="402" viewBox="0 0 355 402" fill="none" xmlns="http://www.w3.org/2000/svg">
<path fill-rule="evenodd" clip-rule="evenodd" d="M32.8555 361.841L0.618164 0.261719H354.851L322.579 361.784L177.518 402L32.8555 361.841Z" fill="#E44D26"/>
<path fill-rule="evenodd" clip-rule="evenodd" d="M177.734 371.261L294.951 338.764L322.529 29.8262H177.734V371.261Z" fill="#F16529"/>
<path d="M119.053 163.931H177.734V208.276H78.4961L66.5352 74.1729H177.734V118.52H115L119.053 163.931Z" fill="#EBEBEB"/>
<path d="M177.54 279.154L177.734 279.103V325.241L177.53 325.298L86.6904 300.08L80.4775 230.45H124.994L128.151 265.818L177.54 279.154Z" fill="#EBEBEB"/>
<path d="M177.581 74.1729H288.669L284.698 118.52H177.581V74.1729Z" fill="white"/>
<path d="M177.581 208.276V163.931H280.663L279.581 175.839L268.493 300.08L177.581 325.276V279.14L227.041 265.79L232.188 208.276H177.581Z" fill="white"/>
</svg>
