<svg width="427" height="512" viewBox="0 0 427 512" fill="none" xmlns="http://www.w3.org/2000/svg">
<path d="M398.874 67.7435C351.331 -0.302696 257.434 -20.4718 189.542 22.7844L70.3066 98.7785C37.737 119.269 15.3035 152.529 8.50725 190.403C2.81947 221.954 7.81869 254.501 22.7134 282.891C12.5072 298.373 5.54605 315.764 2.25079 334.013C-4.61118 372.614 4.36494 412.352 27.1527 444.256C74.7057 512.309 168.603 532.469 236.485 489.215L355.72 413.221C388.292 392.733 410.726 359.472 417.519 321.597C423.206 290.046 418.211 257.499 403.324 229.106C413.527 213.624 420.486 196.234 423.778 177.987C430.644 139.385 421.668 99.6455 398.876 67.7435" fill="#FF3E00"/>
<path d="M177.882 450.729C139.437 460.726 98.838 445.677 76.1966 413.038C62.486 393.847 57.085 369.942 61.2135 346.721C61.9055 342.947 62.8578 339.226 64.0637 335.583L66.3098 328.734L72.4204 333.222C86.5324 343.591 102.311 351.475 119.076 356.533L123.509 357.878L123.101 362.302C122.559 368.596 124.264 374.879 127.912 380.036C134.725 389.868 146.949 394.405 158.527 391.399C161.119 390.707 163.59 389.621 165.853 388.18L285.127 312.172C291.028 308.456 295.094 302.431 296.333 295.568C297.569 288.569 295.942 281.367 291.817 275.58C284.999 265.746 272.773 261.207 261.19 264.21C258.601 264.903 256.134 265.988 253.873 267.427L208.359 296.441C200.875 301.2 192.708 304.786 184.14 307.077C145.695 317.073 105.097 302.024 82.4558 269.385C68.7447 250.195 63.3436 226.29 67.4727 203.069C71.56 180.287 85.056 160.282 104.649 147.961L223.912 71.9466C231.4 67.1802 239.573 63.589 248.148 61.298C286.593 51.3024 327.191 66.3511 349.832 98.9896C363.542 118.18 368.943 142.085 364.815 165.306C364.12 169.08 363.167 172.801 361.965 176.444L359.718 183.293L353.611 178.812C339.5 168.437 323.72 160.55 306.952 155.491L302.519 154.145L302.927 149.721C303.464 143.428 301.76 137.147 298.117 131.988C291.303 122.156 279.079 117.62 267.501 120.625C264.909 121.318 262.438 122.403 260.175 123.844L140.901 199.855C135.001 203.568 130.937 209.593 129.704 216.455C128.46 223.453 130.084 230.658 134.211 236.445C141.029 246.279 153.255 250.818 164.839 247.815C167.43 247.121 169.9 246.035 172.164 244.595L217.672 215.593C225.153 210.828 233.32 207.238 241.889 204.948C280.334 194.952 320.932 210.001 343.573 242.64C357.284 261.83 362.685 285.735 358.556 308.956C354.466 331.739 340.971 351.746 321.379 364.073L202.116 440.081C194.628 444.847 186.455 448.438 177.88 450.729" fill="white"/>
</svg>
