<svg width="29" height="28" viewBox="0 0 29 28" fill="none" xmlns="http://www.w3.org/2000/svg">
<g id="Social Icons" clip-path="url(#clip0_192_403)">
<path id="Vector" d="M26.4273 0H2.56719C1.42422 0 0.5 0.902344 0.5 2.01797V25.9766C0.5 27.0922 1.42422 28 2.56719 28H26.4273C27.5703 28 28.5 27.0922 28.5 25.982V2.01797C28.5 0.902344 27.5703 0 26.4273 0ZM8.80703 23.8602H4.65078V10.4945H8.80703V23.8602ZM6.72891 8.67344C5.39453 8.67344 4.31719 7.59609 4.31719 6.26719C4.31719 4.93828 5.39453 3.86094 6.72891 3.86094C8.05781 3.86094 9.13516 4.93828 9.13516 6.26719C9.13516 7.59062 8.05781 8.67344 6.72891 8.67344ZM24.3602 23.8602H20.2094V17.3633C20.2094 15.8156 20.182 13.8195 18.0492 13.8195C15.8891 13.8195 15.5609 15.5094 15.5609 17.2539V23.8602H11.4156V10.4945H15.3969V12.3211H15.4516C16.0039 11.2711 17.3602 10.1609 19.3781 10.1609C23.5836 10.1609 24.3602 12.9281 24.3602 16.5266V23.8602Z" fill="black"/>
</g>
<defs>
<clipPath id="clip0_192_403">
<rect width="28" height="28" fill="white" transform="translate(0.5)"/>
</clipPath>
</defs>
</svg>
